<svg width="12" height="12" viewBox="0 0 12 12" fill="none" xmlns="http://www.w3.org/2000/svg">
<rect width="12" height="12" rx="4" fill="white"/>
<path d="M9.6915 2.90769C9.60011 2.86984 9.49955 2.85995 9.40254 2.87926C9.30553 2.89857 9.21642 2.94623 9.1465 3.01619C8.84209 3.31963 8.42981 3.49001 8 3.49001C7.57019 3.49001 7.15791 3.31963 6.8535 3.01619C6.36143 2.52553 5.69489 2.25 5 2.25C4.30511 2.25 3.63857 2.52553 3.1465 3.01619C3.1 3.06256 3.06312 3.11766 3.03798 3.17833C3.01284 3.23899 2.99993 3.30403 3 3.36969V9.86969C3 10.0023 3.05268 10.1295 3.14645 10.2232C3.24022 10.317 3.36739 10.3697 3.5 10.3697C3.63261 10.3697 3.75979 10.317 3.85355 10.2232C3.94732 10.1295 4 10.0023 4 9.86969V8.76828C4 8.02665 4.35758 7.20718 5.09785 7.25202V7.25202C5.49316 7.27596 5.86609 7.44353 6.1465 7.72319C6.63857 8.21385 7.30511 8.48939 8 8.48939C8.69489 8.48939 9.36144 8.21385 9.8535 7.72319C9.94728 7.62945 9.99997 7.50229 10 7.36969V3.36969C10 3.27081 9.97073 3.17414 9.91582 3.09191C9.86091 3.00967 9.78284 2.94557 9.6915 2.90769Z" fill="black"/>
</svg>
